<?xml version="1.0" standalone="no"?>
<!DOCTYPE svg PUBLIC "-//W3C//DTD SVG 20010904//EN"
 "http://www.w3.org/TR/2001/REC-SVG-20010904/DTD/svg10.dtd">
<svg version="1.0" xmlns="http://www.w3.org/2000/svg"
 width="400.000000pt" height="168.000000pt" viewBox="0 0 400.000000 168.000000"
 preserveAspectRatio="xMidYMid meet">

<g transform="translate(0.000000,168.000000) scale(0.100000,-0.100000)"
fill="#000000" stroke="none">
<path d="M3885 1319 c-44 -15 -136 -40 -205 -54 -365 -78 -470 -116 -564 -205
-82 -78 -134 -190 -151 -327 -8 -62 -20 -59 137 -37 522 72 732 207 843 541
15 45 25 88 23 95 -2 11 -20 8 -83 -13z"/>
<path d="M679 1272 c-101 -52 -156 -180 -130 -305 28 -136 114 -207 250 -207
82 0 136 23 179 76 l32 39 0 -53 c0 -40 4 -52 15 -52 13 0 15 21 15 125 l0
125 -115 0 c-70 0 -115 -4 -115 -10 0 -6 40 -10 100 -10 l100 0 0 -32 c-1
-165 -226 -250 -357 -135 -92 81 -106 244 -31 358 31 46 117 89 177 89 80 -1
165 -55 190 -122 11 -30 31 -38 31 -13 0 24 -25 67 -57 97 -68 65 -192 78
-284 30z"/>
<path d="M1734 1276 c-90 -42 -137 -126 -137 -246 1 -168 96 -270 254 -270 76
0 123 17 174 62 62 54 79 99 79 208 0 78 -3 102 -21 136 -26 49 -80 98 -130
119 -56 24 -158 19 -219 -9z m189 -7 c48 -13 102 -60 130 -113 17 -33 22 -58
22 -126 0 -68 -5 -93 -22 -126 -86 -162 -306 -165 -396 -5 -27 47 -31 64 -31
130 0 65 5 84 29 129 54 100 157 142 268 111z"/>
<path d="M261 1273 c-5 -10 -25 -56 -44 -103 -19 -47 -64 -156 -101 -243 -50
-120 -62 -158 -49 -155 9 2 31 37 52 86 l35 82 132 0 131 0 34 -85 c24 -60 39
-85 51 -85 14 0 10 17 -28 108 -25 59 -73 176 -107 260 -46 114 -66 152 -79
152 -10 0 -21 -8 -27 -17z m88 -161 c28 -73 51 -137 51 -142 0 -6 -48 -10
-119 -10 l-120 0 62 150 c33 83 64 147 68 143 3 -5 29 -68 58 -141z"/>
<path d="M1130 1030 c0 -224 2 -260 15 -260 13 0 15 20 15 121 l0 121 136 -4
136 -3 29 -33 c24 -27 29 -41 29 -86 0 -80 9 -116 31 -116 15 0 16 4 8 32 -5
18 -9 58 -9 89 0 63 -23 103 -69 121 l-26 10 37 19 c71 36 92 139 42 198 -35
42 -77 51 -236 51 l-138 0 0 -260z m299 224 c49 -19 71 -51 71 -103 0 -53 -39
-98 -95 -111 -22 -5 -86 -10 -142 -10 l-103 0 0 120 0 120 115 0 c81 0 126 -5
154 -16z"/>
<path d="M270 606 c-68 -20 -105 -41 -142 -86 -85 -99 -90 -273 -11 -379 86
-114 278 -141 400 -57 48 33 94 104 109 169 6 27 5 28 -27 25 -28 -2 -34 -8
-39 -33 -16 -75 -71 -132 -151 -155 -54 -16 -134 -2 -187 34 -99 66 -133 213
-74 321 83 152 316 165 392 22 18 -35 31 -47 48 -47 33 0 29 41 -9 97 -56 81
-197 122 -309 89z"/>
<path d="M960 606 c-139 -39 -209 -132 -210 -278 0 -117 44 -201 134 -252 158
-91 370 -31 439 124 16 34 20 65 20 125 -2 150 -66 238 -203 279 -63 19 -117
19 -180 2z m191 -60 c40 -17 90 -67 115 -116 24 -48 24 -162 0 -210 -47 -91
-118 -134 -221 -134 -60 0 -78 4 -118 27 -98 58 -139 157 -113 271 21 88 86
156 170 177 41 10 124 3 167 -15z"/>
<path d="M1500 325 l0 -275 30 0 30 0 2 231 3 231 180 -231 c169 -216 182
-231 213 -231 l32 0 0 275 0 275 -30 0 -30 0 -2 -231 -3 -231 -180 231 c-169
216 -182 231 -212 231 l-33 0 0 -275z"/>
<path d="M2100 578 c0 -22 3 -23 107 -23 l108 0 3 -252 2 -253 24 0 c22 0 25
5 32 58 4 31 4 129 1 217 -4 88 -4 177 0 198 l6 38 91 -1 c122 -2 116 -3 116
20 0 19 -7 20 -245 20 l-245 0 0 -22z"/>
<path d="M2761 333 c-67 -148 -121 -271 -121 -275 0 -5 13 -8 29 -8 26 0 31 7
66 85 l38 86 140 -3 140 -3 36 -83 c34 -79 37 -82 68 -82 31 0 32 1 20 28 -7
15 -61 139 -122 275 -109 245 -110 247 -141 247 -31 0 -31 -1 -153 -267z m180
140 c12 -27 36 -83 54 -125 l33 -78 -115 0 c-110 0 -114 1 -108 20 11 36 104
230 110 230 3 0 15 -21 26 -47z"/>
<path d="M3300 325 l0 -275 30 0 30 0 0 120 0 120 124 0 c67 0 138 -5 156 -11
41 -15 60 -58 60 -138 0 -81 5 -91 46 -91 31 0 34 2 24 19 -5 11 -10 44 -10
73 0 74 -16 123 -48 150 l-28 22 37 37 c42 42 55 90 39 147 -22 85 -71 102
-290 102 l-170 0 0 -275z m295 225 c96 -15 138 -77 100 -149 -23 -46 -77 -61
-215 -61 l-120 0 0 103 c0 57 3 107 7 110 10 10 159 8 228 -3z"/>
</g>
</svg>
